<?xml version="1.0" encoding="UTF-8"?>
<svg width="444px" height="637px" viewBox="0 0 444 637" version="1.1" xmlns="http://www.w3.org/2000/svg" xmlns:xlink="http://www.w3.org/1999/xlink">
    <!-- Generator: Sketch 53.1 (72631) - https://sketchapp.com -->
    <title>icono 2</title>
    <desc>Created with Sketch.</desc>
    <g id="Page-1" stroke="none" stroke-width="1" fill="none" fill-rule="evenodd">
        <g id="Group-26" fill="#FFFFFF" fill-rule="nonzero">
            <g id="hombre">
                <g id="Group" transform="translate(0.000000, 344.000000)">
                    <path d="M8.984,80.008 C4.56,80.008 0.984,76.432 0.984,72.008 C0.984,32.304 33.28,0.008 72.984,0.008 C77.408,0.008 80.984,3.584 80.984,8.008 C80.984,12.432 77.408,16.008 72.984,16.008 C42.112,16.008 16.984,41.136 16.984,72.008 C16.984,76.432 13.408,80.008 8.984,80.008 Z" id="Path"></path>
                    <path d="M120.984,16.016 L72.984,16.008 C68.56,16.008 64.984,12.424 64.984,8.008 C64.984,3.584 68.568,0.008 72.984,0.008 L120.984,0.016 C125.408,0.016 128.984,3.6 128.984,8.016 C128.984,12.44 125.4,16.016 120.984,16.016 Z" id="Path"></path>
                    <path d="M266.232,16.016 L232.984,16 C228.56,16 224.984,12.416 224.984,8 C224.984,3.576 228.568,0 232.984,0 L266.232,0.016 C270.656,0.016 274.232,3.6 274.232,8.016 C274.232,12.44 270.648,16.016 266.232,16.016 Z" id="Path"></path>
                    <path d="M9,136 C4.584,136 1,132.424 1,128 L0.984,72.008 C0.984,67.592 4.56,64.008 8.984,64.008 C13.4,64.008 16.984,67.584 16.984,72.008 L17,128 C17,132.416 13.424,136 9,136 Z" id="Path"></path>
                </g>
                <path d="M120.984,360.016 C116.56,360.016 112.984,356.44 112.984,352.016 L112.984,306.168 C112.984,301.744 116.56,298.168 120.984,298.168 C125.408,298.168 128.984,301.744 128.984,306.168 L128.984,352.016 C128.984,356.44 125.408,360.016 120.984,360.016 Z" id="Path"></path>
                <path d="M232.984,360 C228.56,360 224.984,356.424 224.984,352 L224.984,306.168 C224.984,301.744 228.56,298.168 232.984,298.168 C237.408,298.168 240.984,301.744 240.984,306.168 L240.984,352 C240.984,356.424 237.408,360 232.984,360 Z" id="Path"></path>
                <path d="M176.984,328.008 C106.408,328.008 48.984,270.584 48.984,200.008 C48.984,195.584 52.56,192.008 56.984,192.008 C61.408,192.008 64.984,195.584 64.984,200.008 C64.984,261.768 115.224,312.008 176.984,312.008 C238.744,312.008 288.984,261.768 288.984,200.008 C288.984,195.584 292.56,192.008 296.984,192.008 C301.408,192.008 304.984,195.584 304.984,200.008 C304.984,270.584 247.56,328.008 176.984,328.008 Z" id="Path"></path>
                <path d="M56.984,208.008 C52.56,208.008 48.984,204.432 48.984,200.008 L48.984,112 C48.984,107.576 52.56,104 56.984,104 C61.408,104 64.984,107.576 64.984,112 L64.984,200.008 C64.984,204.432 61.408,208.008 56.984,208.008 L56.984,208.008 Z" id="Path"></path>
                <path d="M296.984,208.008 C292.56,208.008 288.984,204.432 288.984,200.008 L288.984,104.016 C288.984,99.592 292.56,96.016 296.984,96.016 C301.408,96.016 304.984,99.592 304.984,104.016 L304.984,200.008 C304.984,204.432 301.408,208.008 296.984,208.008 Z" id="Path"></path>
                <path d="M296.984,112.016 C292.56,112.016 288.984,108.44 288.984,104.016 C288.984,77.544 267.456,56.016 240.984,56.016 C236.56,56.016 232.984,52.44 232.984,48.016 C232.984,43.592 236.56,40.016 240.984,40.016 C276.272,40.016 304.984,68.728 304.984,104.016 C304.984,108.44 301.408,112.016 296.984,112.016 Z" id="Path"></path>
                <path d="M240.984,56.016 C236.56,56.016 232.984,52.44 232.984,48.016 L232.984,8 C232.984,3.576 236.56,0 240.984,0 C245.408,0 248.984,3.576 248.984,8 L248.984,48.016 C248.984,52.44 245.408,56.016 240.984,56.016 L240.984,56.016 Z" id="Path"></path>
                <path d="M240.984,16 L160.984,16 C156.56,16 152.984,12.424 152.984,8 C152.984,3.576 156.56,0 160.984,0 L240.984,0 C245.408,0 248.984,3.576 248.984,8 C248.984,12.424 245.408,16 240.984,16 L240.984,16 Z" id="Path"></path>
                <path d="M56.984,120 C52.56,120 48.984,116.424 48.984,112 C48.984,50.24 99.224,0 160.984,0 C165.408,0 168.984,3.576 168.984,8 C168.984,12.424 165.408,16 160.984,16 C108.048,16 64.984,59.064 64.984,112 C64.984,116.424 61.408,120 56.984,120 Z" id="Path"></path>
                <g id="Group" transform="translate(48.000000, 111.000000)">
                    <path d="M248.984,49 C246.936,49 244.888,48.216 243.328,46.656 L211.328,14.656 C208.2,11.528 208.2,6.472 211.328,3.344 C214.456,0.216 219.512,0.216 222.64,3.344 L254.64,35.344 C257.768,38.472 257.768,43.528 254.64,46.656 C253.08,48.216 251.032,49 248.984,49 Z" id="Path"></path>
                    <path d="M128.984,41 C79.336,41 38.576,16.88 36.864,15.856 C33.08,13.584 31.856,8.68 34.12,4.888 C36.384,1.112 41.272,-0.144 45.088,2.128 C45.48,2.368 83.896,25 128.984,25 C174.072,25 212.488,2.368 212.872,2.136 C216.696,-0.136 221.576,1.12 223.84,4.896 C226.104,8.688 224.88,13.592 221.096,15.864 C219.392,16.88 178.632,41 128.984,41 L128.984,41 Z" id="Path"></path>
                    <path d="M8.984,49 C6.936,49 4.888,48.216 3.328,46.656 C0.2,43.528 0.2,38.472 3.328,35.344 L35.328,3.344 C38.456,0.216 43.512,0.216 46.64,3.344 C49.768,6.472 49.768,11.528 46.64,14.656 L14.64,46.656 C13.08,48.216 11.032,49 8.984,49 L8.984,49 Z" id="Path"></path>
                </g>
                <path d="M144.976,376 C143.456,376 141.912,375.56 140.544,374.656 L116.544,358.672 C112.872,356.224 111.872,351.256 114.328,347.576 C116.776,343.896 121.728,342.912 125.424,345.36 L149.424,361.344 C153.096,363.792 154.096,368.76 151.64,372.44 C150.104,374.752 147.56,376 144.976,376 L144.976,376 Z" id="Path"></path>
                <path d="M144.976,376 C141.392,376 138.136,373.576 137.224,369.936 C136.144,365.648 138.752,361.312 143.048,360.24 L175.048,352.248 C179.32,351.168 183.672,353.768 184.744,358.072 C185.824,362.36 183.216,366.696 178.92,367.768 L146.92,375.76 C146.272,375.92 145.616,376 144.976,376 Z" id="Path"></path>
                <path d="M208.992,376 C206.408,376 203.864,374.752 202.328,372.44 C199.872,368.76 200.872,363.792 204.544,361.344 L228.544,345.36 C232.224,342.912 237.184,343.896 239.64,347.576 C242.096,351.256 241.096,356.224 237.424,358.672 L213.424,374.656 C212.056,375.56 210.512,376 208.992,376 L208.992,376 Z" id="Path"></path>
                <path d="M208.992,376 C208.352,376 207.696,375.92 207.048,375.76 L175.048,367.768 C170.76,366.696 168.152,362.36 169.224,358.072 C170.288,353.792 174.624,351.168 178.92,352.248 L210.92,360.24 C215.208,361.312 217.816,365.648 216.744,369.936 C215.832,373.568 212.576,376 208.992,376 Z" id="Path"></path>
            </g>
            <g id="Group-23" transform="translate(165.000000, 358.000000)">
                <g id="interfaz">
                    <path d="M139.5,0 C62.5788281,0 0,62.5788281 0,139.5 C0,216.421172 62.5788281,279 139.5,279 C216.421172,279 279,216.421172 279,139.5 C279,62.5788281 216.421172,0 139.5,0 Z M139.5,256.378658 C75.0548145,256.378658 22.6213418,203.949545 22.6213418,139.5 C22.6213418,75.0548145 75.0542695,22.6213418 139.5,22.6213418 C203.949,22.6213418 256.378658,75.0542695 256.378658,139.5 C256.378658,203.949 203.949,256.378658 139.5,256.378658 Z" id="Shape"></path>
                </g>
                <path d="M198.5363,81.4637932 C193.918033,76.8454023 186.42991,76.8454023 181.811643,81.4637932 L140,123.276557 L98.1883574,81.4637932 C93.5700903,76.8454023 86.0819674,76.8454023 81.4637003,81.4637932 C76.8454332,86.0821842 76.8454332,93.5705079 81.4637003,98.1888989 L123.275343,140.001663 L81.479222,181.798905 C76.860955,186.417296 76.860955,193.90562 81.479222,198.524011 C86.0974891,203.142402 93.585612,203.142402 98.2038791,198.524011 L140,156.726769 L181.808317,198.536207 C186.426584,203.154598 193.914707,203.154598 198.532974,198.536207 C203.151241,193.917816 203.151241,186.429492 198.532974,181.811101 L156.724657,140.001663 L198.5363,98.1888989 C203.154567,93.5705079 203.154567,86.0827385 198.5363,81.4637932 Z" id="Path"></path>
            </g>
        </g>
    </g>
</svg>