<?xml version="1.0" encoding="UTF-8"?>
<svg width="449px" height="637px" viewBox="0 0 449 637" version="1.1" xmlns="http://www.w3.org/2000/svg" xmlns:xlink="http://www.w3.org/1999/xlink">
    <!-- Generator: Sketch 53.1 (72631) - https://sketchapp.com -->
    <title>icono 2</title>
    <desc>Created with Sketch.</desc>
    <g id="Page-1" stroke="none" stroke-width="1" fill="none" fill-rule="evenodd">
        <g id="Group-24" fill="#FFFFFF" fill-rule="nonzero">
            <g id="hombre">
                <g id="Group" transform="translate(0.000000, 344.000000)">
                    <path d="M15.984,80.008 C11.56,80.008 7.984,76.432 7.984,72.008 C7.984,32.304 40.28,0.008 79.984,0.008 C84.408,0.008 87.984,3.584 87.984,8.008 C87.984,12.432 84.408,16.008 79.984,16.008 C49.112,16.008 23.984,41.136 23.984,72.008 C23.984,76.432 20.408,80.008 15.984,80.008 Z" id="Path"></path>
                    <path d="M127.984,16.016 L79.984,16.008 C75.56,16.008 71.984,12.424 71.984,8.008 C71.984,3.584 75.568,0.008 79.984,0.008 L127.984,0.016 C132.408,0.016 135.984,3.6 135.984,8.016 C135.984,12.44 132.4,16.016 127.984,16.016 Z" id="Path"></path>
                    <path d="M273.232,16.016 L239.984,16 C235.56,16 231.984,12.416 231.984,8 C231.984,3.576 235.568,0 239.984,0 L273.232,0.016 C277.656,0.016 281.232,3.6 281.232,8.016 C281.232,12.44 277.648,16.016 273.232,16.016 Z" id="Path"></path>
                    <path d="M16,136 C11.584,136 8,132.424 8,128 L7.984,72.008 C7.984,67.592 11.56,64.008 15.984,64.008 C20.4,64.008 23.984,67.584 23.984,72.008 L24,128 C24,132.416 20.424,136 16,136 Z" id="Path"></path>
                </g>
                <path d="M127.984,360.016 C123.56,360.016 119.984,356.44 119.984,352.016 L119.984,306.168 C119.984,301.744 123.56,298.168 127.984,298.168 C132.408,298.168 135.984,301.744 135.984,306.168 L135.984,352.016 C135.984,356.44 132.408,360.016 127.984,360.016 Z" id="Path"></path>
                <path d="M239.984,360 C235.56,360 231.984,356.424 231.984,352 L231.984,306.168 C231.984,301.744 235.56,298.168 239.984,298.168 C244.408,298.168 247.984,301.744 247.984,306.168 L247.984,352 C247.984,356.424 244.408,360 239.984,360 Z" id="Path"></path>
                <path d="M183.984,328.008 C113.408,328.008 55.984,270.584 55.984,200.008 C55.984,195.584 59.56,192.008 63.984,192.008 C68.408,192.008 71.984,195.584 71.984,200.008 C71.984,261.768 122.224,312.008 183.984,312.008 C245.744,312.008 295.984,261.768 295.984,200.008 C295.984,195.584 299.56,192.008 303.984,192.008 C308.408,192.008 311.984,195.584 311.984,200.008 C311.984,270.584 254.56,328.008 183.984,328.008 Z" id="Path"></path>
                <path d="M63.984,208.008 C59.56,208.008 55.984,204.432 55.984,200.008 L55.984,112 C55.984,107.576 59.56,104 63.984,104 C68.408,104 71.984,107.576 71.984,112 L71.984,200.008 C71.984,204.432 68.408,208.008 63.984,208.008 L63.984,208.008 Z" id="Path"></path>
                <path d="M303.984,208.008 C299.56,208.008 295.984,204.432 295.984,200.008 L295.984,104.016 C295.984,99.592 299.56,96.016 303.984,96.016 C308.408,96.016 311.984,99.592 311.984,104.016 L311.984,200.008 C311.984,204.432 308.408,208.008 303.984,208.008 Z" id="Path"></path>
                <path d="M303.984,112.016 C299.56,112.016 295.984,108.44 295.984,104.016 C295.984,77.544 274.456,56.016 247.984,56.016 C243.56,56.016 239.984,52.44 239.984,48.016 C239.984,43.592 243.56,40.016 247.984,40.016 C283.272,40.016 311.984,68.728 311.984,104.016 C311.984,108.44 308.408,112.016 303.984,112.016 Z" id="Path"></path>
                <path d="M247.984,56.016 C243.56,56.016 239.984,52.44 239.984,48.016 L239.984,8 C239.984,3.576 243.56,0 247.984,0 C252.408,0 255.984,3.576 255.984,8 L255.984,48.016 C255.984,52.44 252.408,56.016 247.984,56.016 L247.984,56.016 Z" id="Path"></path>
                <path d="M247.984,16 L167.984,16 C163.56,16 159.984,12.424 159.984,8 C159.984,3.576 163.56,0 167.984,0 L247.984,0 C252.408,0 255.984,3.576 255.984,8 C255.984,12.424 252.408,16 247.984,16 L247.984,16 Z" id="Path"></path>
                <path d="M63.984,120 C59.56,120 55.984,116.424 55.984,112 C55.984,50.24 106.224,0 167.984,0 C172.408,0 175.984,3.576 175.984,8 C175.984,12.424 172.408,16 167.984,16 C115.048,16 71.984,59.064 71.984,112 C71.984,116.424 68.408,120 63.984,120 Z" id="Path"></path>
                <g id="Group" transform="translate(48.000000, 104.000000)">
                    <path d="M255.984,56 C253.936,56 251.888,55.216 250.328,53.656 L218.328,21.656 C215.2,18.528 215.2,13.472 218.328,10.344 C221.456,7.216 226.512,7.216 229.64,10.344 L261.64,42.344 C264.768,45.472 264.768,50.528 261.64,53.656 C260.08,55.216 258.032,56 255.984,56 Z" id="Path"></path>
                    <path d="M135.984,48 C86.336,48 45.576,23.88 43.864,22.856 C40.08,20.584 38.856,15.68 41.12,11.888 C43.384,8.112 48.272,6.856 52.088,9.128 C52.48,9.368 90.896,32 135.984,32 C181.072,32 219.488,9.368 219.872,9.136 C223.696,6.864 228.576,8.12 230.84,11.896 C233.104,15.688 231.88,20.592 228.096,22.864 C226.392,23.88 185.632,48 135.984,48 L135.984,48 Z" id="Path"></path>
                    <path d="M15.984,56 C13.936,56 11.888,55.216 10.328,53.656 C7.2,50.528 7.2,45.472 10.328,42.344 L42.328,10.344 C45.456,7.216 50.512,7.216 53.64,10.344 C56.768,13.472 56.768,18.528 53.64,21.656 L21.64,53.656 C20.08,55.216 18.032,56 15.984,56 L15.984,56 Z" id="Path"></path>
                </g>
                <path d="M151.976,376 C150.456,376 148.912,375.56 147.544,374.656 L123.544,358.672 C119.872,356.224 118.872,351.256 121.328,347.576 C123.776,343.896 128.728,342.912 132.424,345.36 L156.424,361.344 C160.096,363.792 161.096,368.76 158.64,372.44 C157.104,374.752 154.56,376 151.976,376 L151.976,376 Z" id="Path"></path>
                <path d="M151.976,376 C148.392,376 145.136,373.576 144.224,369.936 C143.144,365.648 145.752,361.312 150.048,360.24 L182.048,352.248 C186.32,351.168 190.672,353.768 191.744,358.072 C192.824,362.36 190.216,366.696 185.92,367.768 L153.92,375.76 C153.272,375.92 152.616,376 151.976,376 Z" id="Path"></path>
                <path d="M215.992,376 C213.408,376 210.864,374.752 209.328,372.44 C206.872,368.76 207.872,363.792 211.544,361.344 L235.544,345.36 C239.224,342.912 244.184,343.896 246.64,347.576 C249.096,351.256 248.096,356.224 244.424,358.672 L220.424,374.656 C219.056,375.56 217.512,376 215.992,376 L215.992,376 Z" id="Path"></path>
                <path d="M215.992,376 C215.352,376 214.696,375.92 214.048,375.76 L182.048,367.768 C177.76,366.696 175.152,362.36 176.224,358.072 C177.288,353.792 181.624,351.168 185.92,352.248 L217.92,360.24 C222.208,361.312 224.816,365.648 223.744,369.936 C222.832,373.568 219.576,376 215.992,376 Z" id="Path"></path>
            </g>
            <g id="interfaz" transform="translate(170.000000, 358.000000)">
                <path d="M208.897813,93.5357554 C204.607941,88.9973809 197.455975,88.7974958 192.925508,93.1125015 L120.79566,161.74463 L86.3917626,126.304349 C82.0343928,121.818949 74.8900482,121.720645 70.4156472,126.092995 C65.9450565,130.460976 65.8508873,137.636632 70.2044468,142.122031 L112.385746,185.573008 C114.596274,187.85148 117.534029,189 120.479404,189 C123.274,189 126.068595,187.96453 128.256806,185.890312 L208.476501,109.561515 C213.003158,105.253609 213.194762,98.0779529 208.897813,93.5357554 Z" id="Path"></path>
                <path d="M139.5,0 C62.5788281,0 0,62.5788281 0,139.5 C0,216.421172 62.5788281,279 139.5,279 C216.421172,279 279,216.421172 279,139.5 C279,62.5788281 216.421172,0 139.5,0 Z M139.5,256.378658 C75.0548145,256.378658 22.6213418,203.949545 22.6213418,139.5 C22.6213418,75.0548145 75.0542695,22.6213418 139.5,22.6213418 C203.949,22.6213418 256.378658,75.0542695 256.378658,139.5 C256.378658,203.949 203.949,256.378658 139.5,256.378658 Z" id="Shape"></path>
            </g>
        </g>
    </g>
</svg>