<?xml version="1.0" encoding="UTF-8"?>
<svg width="512px" height="512px" viewBox="0 0 512 512" version="1.1" xmlns="http://www.w3.org/2000/svg" xmlns:xlink="http://www.w3.org/1999/xlink">
    <!-- Generator: Sketch 53.1 (72631) - https://sketchapp.com -->
    <title>icono 2</title>
    <desc>Created with Sketch.</desc>
    <g id="Page-1" stroke="none" stroke-width="1" fill="none" fill-rule="evenodd">
        <g id="icon-2" fill="#FFFFFF" fill-rule="nonzero">
            <path d="M437.02,74.98 C388.668,26.628 324.38,0 256,0 C187.62,0 123.332,26.628 74.98,74.98 C26.629,123.332 0,187.62 0,256 C0,324.38 26.629,388.668 74.98,437.02 C123.332,485.372 187.62,512 256,512 C324.38,512 388.668,485.372 437.02,437.02 C485.371,388.668 512,324.38 512,256 C512,187.62 485.371,123.332 437.02,74.98 Z M256,482 C131.383,482 30,380.617 30,256 C30,131.383 131.383,30 256,30 C380.617,30 482,131.383 482,256 C482,380.617 380.617,482 256,482 Z" id="Shape"></path>
            <path d="M272.067,241 L239.933,241 C221.626,241 206.733,226.107 206.733,207.801 C206.733,189.494 221.627,174.601 239.933,174.601 L304.2,174.601 C312.484,174.601 319.2,167.885 319.2,159.601 C319.2,151.317 312.484,144.601 304.2,144.601 L271,144.601 L271,111.401 C271,103.117 264.284,96.401 256,96.401 C247.716,96.401 241,103.117 241,111.401 L241,144.601 L239.934,144.601 C205.085,144.601 176.734,172.953 176.734,207.801 C176.734,242.649 205.086,271 239.934,271 L272.068,271 C290.374,271 305.267,285.894 305.267,304.2 C305.267,322.506 290.374,337.4 272.068,337.4 L207.801,337.4 C199.517,337.4 192.801,344.116 192.801,352.4 C192.801,360.684 199.517,367.4 207.801,367.4 L241,367.4 L241,400.601 C241,408.885 247.716,415.601 256,415.601 C264.284,415.601 271,408.885 271,400.601 L271,367.4 L272.067,367.4 C306.915,367.4 335.266,339.048 335.266,304.2 C335.266,269.352 306.915,241 272.067,241 Z" id="Path"></path>
        </g>
    </g>
</svg>