<?xml version="1.0" encoding="UTF-8"?>
<svg width="512px" height="512px" viewBox="0 0 512 512" version="1.1" xmlns="http://www.w3.org/2000/svg" xmlns:xlink="http://www.w3.org/1999/xlink">
    <!-- Generator: Sketch 53.1 (72631) - https://sketchapp.com -->
    <title>icono 2</title>
    <desc>Created with Sketch.</desc>
    <g id="Page-1" stroke="none" stroke-width="1" fill="none" fill-rule="evenodd">
        <g id="icon" fill="#FFFFFF" fill-rule="nonzero">
            <path d="M367.398438,231.898438 C367.398438,240.183594 360.683594,246.898438 352.398438,246.898438 C344.117188,246.898438 337.398438,240.183594 337.398438,231.898438 C337.398438,223.617188 344.117188,216.898438 352.398438,216.898438 C360.683594,216.898438 367.398438,223.617188 367.398438,231.898438 Z" id="Path"></path>
            <path d="M352.382812,72.300781 C321.933594,72.300781 297.234375,96.941406 297.234375,127.449219 L297.234375,127.46875 C297.234375,135.75 303.949219,142.460938 312.234375,142.460938 C320.519531,142.460938 327.234375,135.734375 327.234375,127.449219 C327.234375,113.582031 338.449219,102.300781 352.402344,102.300781 C366.277344,102.300781 377.566406,113.589844 377.566406,127.46875 C377.566406,141.34375 366.277344,152.632812 352.402344,152.632812 C344.117188,152.632812 337.402344,159.351562 337.402344,167.632812 L337.402344,183.699219 C337.402344,191.984375 344.117188,198.699219 352.402344,198.699219 C360.683594,198.699219 367.402344,191.984375 367.402344,183.699219 L367.402344,180.5625 C390.554688,174.011719 407.566406,152.6875 407.566406,127.46875 C407.566406,97.046875 382.820312,72.300781 352.382812,72.300781 L352.382812,72.300781 Z" id="Path"></path>
            <path d="M143.9375,382.8125 C162.578125,368.296875 174.601562,345.664062 174.601562,320.265625 C174.601562,276.558594 139.039062,241 95.332031,241 C51.625,241 16.066406,276.558594 16.066406,320.265625 C16.066406,345.664062 28.089844,368.296875 46.726562,382.8125 C20.421875,398.460938 0,428.015625 0,464.867188 L0,497 C0,505.285156 6.714844,512 15,512 L175.667969,512 C183.949219,512 190.667969,505.285156 190.667969,497 L190.667969,464.867188 C190.667969,428.023438 170.25,398.464844 143.9375,382.8125 Z M46.066406,320.265625 C46.066406,293.101562 68.167969,271 95.335938,271 C122.5,271 144.601562,293.101562 144.601562,320.265625 C144.601562,347.433594 122.5,369.535156 95.335938,369.535156 C68.167969,369.535156 46.066406,347.433594 46.066406,320.265625 Z M160.667969,482 L30,482 L30,464.867188 C30,428.78125 59.195312,399.535156 95.332031,399.535156 C131.417969,399.535156 160.664062,428.730469 160.664062,464.867188 L160.664062,482 L160.667969,482 Z" id="Shape"></path>
            <path d="M448.800781,0 L256,0 C221.09375,0 192.800781,28.242188 192.800781,63.199219 L192.800781,352.398438 C192.800781,364.667969 206.871094,371.84375 216.800781,364.398438 L277.066406,319.199219 L448.800781,319.199219 C483.707031,319.199219 512,290.957031 512,256 L512,63.199219 C512,28.292969 483.757812,1.13686838e-13 448.800781,1.13686838e-13 L448.800781,0 Z M482,256 C482,274.351562 467.160156,289.199219 448.800781,289.199219 L272.066406,289.199219 C268.820312,289.199219 265.664062,290.253906 263.066406,292.199219 L222.800781,322.398438 L222.800781,63.199219 C222.800781,44.847656 237.640625,30 256,30 L448.800781,30 C467.152344,30 482,44.839844 482,63.199219 L482,256 Z" id="Shape"></path>
        </g>
    </g>
</svg>