<?xml version="1.0" encoding="UTF-8"?>
<svg width="489px" height="480px" viewBox="0 0 489 480" version="1.1" xmlns="http://www.w3.org/2000/svg" xmlns:xlink="http://www.w3.org/1999/xlink">
    <!-- Generator: Sketch 53.1 (72631) - https://sketchapp.com -->
    <title>icono 2</title>
    <desc>Created with Sketch.</desc>
    <g id="Page-1" stroke="none" stroke-width="1" fill="none" fill-rule="evenodd">
        <g id="hombre" fill="#FFFFFF" fill-rule="nonzero">
            <g id="Group" transform="translate(0.000000, 344.000000)">
                <path d="M15.984,80.008 C11.56,80.008 7.984,76.432 7.984,72.008 C7.984,32.304 40.28,0.008 79.984,0.008 C84.408,0.008 87.984,3.584 87.984,8.008 C87.984,12.432 84.408,16.008 79.984,16.008 C49.112,16.008 23.984,41.136 23.984,72.008 C23.984,76.432 20.408,80.008 15.984,80.008 Z" id="Path"></path>
                <path d="M127.984,16.016 L79.984,16.008 C75.56,16.008 71.984,12.424 71.984,8.008 C71.984,3.584 75.568,0.008 79.984,0.008 L127.984,0.016 C132.408,0.016 135.984,3.6 135.984,8.016 C135.984,12.44 132.4,16.016 127.984,16.016 Z" id="Path"></path>
                <path d="M273.232,16.016 L239.984,16 C235.56,16 231.984,12.416 231.984,8 C231.984,3.576 235.568,0 239.984,0 L273.232,0.016 C277.656,0.016 281.232,3.6 281.232,8.016 C281.232,12.44 277.648,16.016 273.232,16.016 Z" id="Path"></path>
                <path d="M16,136 C11.584,136 8,132.424 8,128 L7.984,72.008 C7.984,67.592 11.56,64.008 15.984,64.008 C20.4,64.008 23.984,67.584 23.984,72.008 L24,128 C24,132.416 20.424,136 16,136 Z" id="Path"></path>
            </g>
            <path d="M127.984,360.016 C123.56,360.016 119.984,356.44 119.984,352.016 L119.984,306.168 C119.984,301.744 123.56,298.168 127.984,298.168 C132.408,298.168 135.984,301.744 135.984,306.168 L135.984,352.016 C135.984,356.44 132.408,360.016 127.984,360.016 Z" id="Path"></path>
            <path d="M239.984,360 C235.56,360 231.984,356.424 231.984,352 L231.984,306.168 C231.984,301.744 235.56,298.168 239.984,298.168 C244.408,298.168 247.984,301.744 247.984,306.168 L247.984,352 C247.984,356.424 244.408,360 239.984,360 Z" id="Path"></path>
            <path d="M183.984,328.008 C113.408,328.008 55.984,270.584 55.984,200.008 C55.984,195.584 59.56,192.008 63.984,192.008 C68.408,192.008 71.984,195.584 71.984,200.008 C71.984,261.768 122.224,312.008 183.984,312.008 C245.744,312.008 295.984,261.768 295.984,200.008 C295.984,195.584 299.56,192.008 303.984,192.008 C308.408,192.008 311.984,195.584 311.984,200.008 C311.984,270.584 254.56,328.008 183.984,328.008 Z" id="Path"></path>
            <path d="M63.984,208.008 C59.56,208.008 55.984,204.432 55.984,200.008 L55.984,112 C55.984,107.576 59.56,104 63.984,104 C68.408,104 71.984,107.576 71.984,112 L71.984,200.008 C71.984,204.432 68.408,208.008 63.984,208.008 L63.984,208.008 Z" id="Path"></path>
            <path d="M303.984,208.008 C299.56,208.008 295.984,204.432 295.984,200.008 L295.984,104.016 C295.984,99.592 299.56,96.016 303.984,96.016 C308.408,96.016 311.984,99.592 311.984,104.016 L311.984,200.008 C311.984,204.432 308.408,208.008 303.984,208.008 Z" id="Path"></path>
            <path d="M303.984,112.016 C299.56,112.016 295.984,108.44 295.984,104.016 C295.984,77.544 274.456,56.016 247.984,56.016 C243.56,56.016 239.984,52.44 239.984,48.016 C239.984,43.592 243.56,40.016 247.984,40.016 C283.272,40.016 311.984,68.728 311.984,104.016 C311.984,108.44 308.408,112.016 303.984,112.016 Z" id="Path"></path>
            <path d="M247.984,56.016 C243.56,56.016 239.984,52.44 239.984,48.016 L239.984,8 C239.984,3.576 243.56,0 247.984,0 C252.408,0 255.984,3.576 255.984,8 L255.984,48.016 C255.984,52.44 252.408,56.016 247.984,56.016 L247.984,56.016 Z" id="Path"></path>
            <path d="M247.984,16 L167.984,16 C163.56,16 159.984,12.424 159.984,8 C159.984,3.576 163.56,0 167.984,0 L247.984,0 C252.408,0 255.984,3.576 255.984,8 C255.984,12.424 252.408,16 247.984,16 L247.984,16 Z" id="Path"></path>
            <path d="M63.984,120 C59.56,120 55.984,116.424 55.984,112 C55.984,50.24 106.224,0 167.984,0 C172.408,0 175.984,3.576 175.984,8 C175.984,12.424 172.408,16 167.984,16 C115.048,16 71.984,59.064 71.984,112 C71.984,116.424 68.408,120 63.984,120 Z" id="Path"></path>
            <g id="Group" transform="translate(55.000000, 111.000000)">
                <path d="M248.984,49 C246.936,49 244.888,48.216 243.328,46.656 L211.328,14.656 C208.2,11.528 208.2,6.472 211.328,3.344 C214.456,0.216 219.512,0.216 222.64,3.344 L254.64,35.344 C257.768,38.472 257.768,43.528 254.64,46.656 C253.08,48.216 251.032,49 248.984,49 Z" id="Path"></path>
                <path d="M128.984,41 C79.336,41 38.576,16.88 36.864,15.856 C33.08,13.584 31.856,8.68 34.12,4.888 C36.384,1.112 41.272,-0.144 45.088,2.128 C45.48,2.368 83.896,25 128.984,25 C174.072,25 212.488,2.368 212.872,2.136 C216.696,-0.136 221.576,1.12 223.84,4.896 C226.104,8.688 224.88,13.592 221.096,15.864 C219.392,16.88 178.632,41 128.984,41 L128.984,41 Z" id="Path"></path>
                <path d="M8.984,49 C6.936,49 4.888,48.216 3.328,46.656 C0.2,43.528 0.2,38.472 3.328,35.344 L35.328,3.344 C38.456,0.216 43.512,0.216 46.64,3.344 C49.768,6.472 49.768,11.528 46.64,14.656 L14.64,46.656 C13.08,48.216 11.032,49 8.984,49 L8.984,49 Z" id="Path"></path>
            </g>
            <path d="M151.976,376 C150.456,376 148.912,375.56 147.544,374.656 L123.544,358.672 C119.872,356.224 118.872,351.256 121.328,347.576 C123.776,343.896 128.728,342.912 132.424,345.36 L156.424,361.344 C160.096,363.792 161.096,368.76 158.64,372.44 C157.104,374.752 154.56,376 151.976,376 L151.976,376 Z" id="Path"></path>
            <path d="M151.976,376 C148.392,376 145.136,373.576 144.224,369.936 C143.144,365.648 145.752,361.312 150.048,360.24 L182.048,352.248 C186.32,351.168 190.672,353.768 191.744,358.072 C192.824,362.36 190.216,366.696 185.92,367.768 L153.92,375.76 C153.272,375.92 152.616,376 151.976,376 Z" id="Path"></path>
            <path d="M215.992,376 C213.408,376 210.864,374.752 209.328,372.44 C206.872,368.76 207.872,363.792 211.544,361.344 L235.544,345.36 C239.224,342.912 244.184,343.896 246.64,347.576 C249.096,351.256 248.096,356.224 244.424,358.672 L220.424,374.656 C219.056,375.56 217.512,376 215.992,376 L215.992,376 Z" id="Path"></path>
            <path d="M215.992,376 C215.352,376 214.696,375.92 214.048,375.76 L182.048,367.768 C177.76,366.696 175.152,362.36 176.224,358.072 C177.288,353.792 181.624,351.168 185.92,352.248 L217.92,360.24 C222.208,361.312 224.816,365.648 223.744,369.936 C222.832,373.568 219.576,376 215.992,376 Z" id="Path"></path>
            <path d="M184.224,408 C179.8,408 176.184,404.424 176.184,400 C176.184,395.576 179.72,392 184.136,392 L184.224,392 C188.64,392 192.224,395.576 192.224,400 C192.224,404.424 188.64,408 184.224,408 Z" id="Path"></path>
            <path d="M184.224,456.008 C179.8,456.008 176.184,452.432 176.184,448.008 C176.184,443.584 179.72,440.008 184.136,440.008 L184.224,440.008 C188.64,440.008 192.224,443.584 192.224,448.008 C192.224,452.432 188.64,456.008 184.224,456.008 Z" id="Path"></path>
            <g id="Group" transform="translate(264.000000, 255.000000)">
                <path d="M112.016,225 C50.256,225 0.016,174.752 0.016,112.976 C0.016,51.216 50.256,0.968 112.016,0.968 C173.776,0.968 224.016,51.216 224.016,112.976 C224.016,174.752 173.776,225 112.016,225 Z M112.016,16.968 C59.08,16.968 16.016,60.04 16.016,112.976 C16.016,165.92 59.08,209 112.016,209 C164.952,209 208.016,165.92 208.016,112.976 C208.016,60.04 164.952,16.968 112.016,16.968 Z" id="Shape"></path>
                <path d="M112.016,201 C63.496,201 24.016,161.512 24.016,112.976 C24.016,64.448 63.496,24.968 112.016,24.968 C160.536,24.968 200.016,64.448 200.016,112.976 C200.016,161.512 160.536,201 112.016,201 Z M112.016,40.968 C72.312,40.968 40.016,73.272 40.016,112.976 C40.016,152.688 72.312,185 112.016,185 C151.72,185 184.016,152.688 184.016,112.976 C184.016,73.272 151.72,40.968 112.016,40.968 Z" id="Shape"></path>
                <path d="M112.016,136.968 C98.784,136.968 88.016,126.2 88.016,112.968 C88.016,99.736 98.784,88.96 112.016,88.96 C125.248,88.96 136.016,99.736 136.016,112.968 C136.016,126.2 125.248,136.968 112.016,136.968 Z M112.016,104.96 C107.6,104.96 104.016,108.552 104.016,112.968 C104.016,117.384 107.6,120.968 112.016,120.968 C116.432,120.968 120.016,117.384 120.016,112.968 C120.016,108.552 116.432,104.96 112.016,104.96 Z" id="Shape"></path>
                <path d="M181.312,80.968 L42.72,80.968 C38.296,80.968 34.72,77.392 34.72,72.968 C34.72,68.544 38.296,64.968 42.72,64.968 L181.312,64.968 C185.736,64.968 189.312,68.544 189.312,72.968 C189.312,77.392 185.736,80.968 181.312,80.968 Z" id="Path"></path>
                <path d="M128.032,199.312 C127.984,199.312 127.928,199.312 127.88,199.312 C123.456,199.224 119.944,195.576 120.032,191.16 C120.84,148.64 148.832,112.272 189.688,100.656 C193.952,99.432 198.36,101.912 199.568,106.16 C200.776,110.408 198.312,114.832 194.064,116.04 C160.024,125.72 136.704,156.024 136.032,191.456 C135.944,195.832 132.384,199.312 128.032,199.312 Z" id="Path"></path>
                <path d="M96.032,199.392 C91.68,199.392 88.112,195.896 88.032,191.536 C87.4,156.048 64.08,125.712 29.992,116.04 C25.736,114.84 23.272,110.416 24.48,106.168 C25.68,101.912 30.12,99.424 34.352,100.656 C75.272,112.264 103.272,148.672 104.032,191.256 C104.112,195.672 100.592,199.32 96.176,199.4 C96.128,199.392 96.08,199.392 96.032,199.392 Z" id="Path"></path>
            </g>
        </g>
    </g>
</svg>