<?xml version="1.0" encoding="UTF-8"?>
<svg width="384px" height="481px" viewBox="0 0 384 481" version="1.1" xmlns="http://www.w3.org/2000/svg" xmlns:xlink="http://www.w3.org/1999/xlink">
    <!-- Generator: Sketch 53.1 (72631) - https://sketchapp.com -->
    <title>icono 2</title>
    <desc>Created with Sketch.</desc>
    <g id="Page-1" stroke="none" stroke-width="1" fill="none" fill-rule="evenodd">
        <g id="mapas-y-banderas" fill="#FFFFFF" fill-rule="nonzero">
            <path d="M177.278,278.426 C177.278,229.785 137.706,190.213 89.064,190.213 C40.423,190.213 0.852,229.785 0.852,278.426 C0.852,292.68 4.253,306.153 10.283,318.08 L89.064,480.543 L167.859,318.055 C173.88,306.133 177.278,292.669 177.278,278.426 Z M89.064,327.243 C62.147,327.243 40.247,305.343 40.247,278.426 C40.247,251.509 62.147,229.609 89.064,229.609 C115.982,229.609 137.881,251.509 137.881,278.426 C137.881,305.343 115.982,327.243 89.064,327.243 Z" id="Shape"></path>
            <path d="M339.021,0 C314.391,0 294.352,20.038 294.352,44.668 C294.352,51.886 296.075,58.708 299.128,64.749 L339.021,147.016 L378.92,64.736 C381.969,58.699 383.69,51.881 383.69,44.669 C383.69,20.038 363.65,0 339.021,0 Z M339.021,69.388 C325.39,69.388 314.301,58.299 314.301,44.668 C314.301,31.038 325.39,19.948 339.021,19.948 C352.65,19.948 363.74,31.038 363.74,44.668 C363.74,58.299 352.65,69.388 339.021,69.388 Z" id="Shape"></path>
            <path d="M300.116,289.787 C298.304,281.264 295.95,272.912 292.985,264.712 C289.011,253.725 284.245,242.988 280.594,231.876 C273.771,211.105 285.542,193.771 287.754,190.62 C291.63,185.103 296.162,180.04 300.944,175.298 C310.151,166.17 320.305,158.01 330.928,150.495 C329.612,148.456 328.337,146.395 327.123,144.296 C311.844,150.286 233.269,177.748 235.185,238.417 C235.569,250.579 240.268,262.154 243.164,273.943 C244.559,279.624 245.769,285.355 246.509,291.161 C246.828,293.775 247.024,296.404 247.238,299.031 C247.244,299.011 247.242,298.997 247.23,298.986 C247.237,299.062 247.432,307.312 247.066,310.886 C245.919,322.075 244.267,333.38 239.55,343.644 C235.163,353.187 228.544,361.486 220.357,368.046 C201.641,383.04 176.843,389.034 153.444,391.444 C152.33,391.561 151.216,391.661 150.102,391.758 L108.323,477.91 C128.937,476.629 149.498,473.808 169.558,468.871 C193.165,463.06 216.171,454.283 236.785,441.273 C257.381,428.277 275.093,410.695 286.884,389.289 C299.219,366.898 304.161,341.251 303.109,315.837 C302.752,307.156 301.928,298.307 300.116,289.787 Z" id="Path"></path>
        </g>
    </g>
</svg>