<?xml version="1.0" encoding="UTF-8"?>
<svg width="512px" height="426px" viewBox="0 0 512 426" version="1.1" xmlns="http://www.w3.org/2000/svg" xmlns:xlink="http://www.w3.org/1999/xlink">
    <!-- Generator: Sketch 53.1 (72631) - https://sketchapp.com -->
    <title>icono 2</title>
    <desc>Created with Sketch.</desc>
    <g id="Page-1" stroke="none" stroke-width="1" fill="none" fill-rule="evenodd">
        <g id="hombres" fill="#FFFFFF" fill-rule="nonzero">
            <path d="M437,225.152 L386.882,225.152 C380.061,225.152 373.457,226.084 367.172,227.798 C354.774,203.426 329.462,186.68 300.295,186.68 L211.705,186.68 C182.538,186.68 157.226,203.426 144.828,227.798 C138.543,226.084 131.939,225.152 125.118,225.152 L75,225.152 C33.645,225.152 0,258.797 0,300.152 L0,380.27 C0,405.083 20.187,425.27 45,425.27 L467,425.27 C491.813,425.27 512,405.083 512,380.27 L512,300.152 C512,258.797 478.355,225.152 437,225.152 Z M136.705,261.682 L136.705,395.271 L45,395.271 C36.729,395.271 30,388.542 30,380.271 L30,300.153 C30,275.34 50.187,255.153 75,255.153 L125.118,255.153 C129.19,255.153 133.133,255.706 136.887,256.725 C136.779,258.366 136.705,260.016 136.705,261.682 Z M345.295,395.271 L166.705,395.271 L166.705,261.681 C166.705,236.868 186.892,216.681 211.705,216.681 L300.295,216.681 C325.108,216.681 345.295,236.868 345.295,261.681 L345.295,395.271 Z M482,380.271 C482,388.542 475.271,395.271 467,395.271 L375.295,395.271 L375.295,261.681 C375.295,260.014 375.221,258.364 375.113,256.724 C378.867,255.706 382.81,255.152 386.882,255.152 L437,255.152 C461.813,255.152 482,275.339 482,300.152 L482,380.271 Z" id="Shape"></path>
            <path d="M100.06,83.504 C63.311,83.504 33.414,113.401 33.414,150.15 C33.413,186.899 63.311,216.796 100.06,216.796 C136.808,216.796 166.706,186.899 166.706,150.15 C166.706,113.401 136.809,83.504 100.06,83.504 Z M100.059,186.796 C79.852,186.796 63.413,170.357 63.413,150.15 C63.413,129.943 79.852,113.504 100.059,113.504 C120.266,113.504 136.705,129.943 136.705,150.15 C136.705,170.357 120.266,186.796 100.059,186.796 Z" id="Shape"></path>
            <path d="M256,0.729 C206.904,0.729 166.962,40.671 166.962,89.767 C166.962,138.863 206.904,178.805 256,178.805 C305.096,178.805 345.038,138.863 345.038,89.767 C345.038,40.672 305.096,0.729 256,0.729 Z M256,148.805 C223.446,148.805 196.962,122.321 196.962,89.767 C196.962,57.214 223.446,30.729 256,30.729 C288.554,30.729 315.038,57.213 315.038,89.767 C315.038,122.321 288.554,148.805 256,148.805 Z" id="Shape"></path>
            <path d="M411.94,83.504 C375.192,83.504 345.294,113.401 345.294,150.15 C345.295,186.899 375.192,216.796 411.94,216.796 C448.689,216.796 478.586,186.899 478.586,150.15 C478.586,113.401 448.689,83.504 411.94,83.504 Z M411.94,186.796 C391.734,186.796 375.294,170.357 375.294,150.15 C375.295,129.943 391.734,113.504 411.94,113.504 C432.147,113.504 448.586,129.943 448.586,150.15 C448.586,170.357 432.147,186.796 411.94,186.796 Z" id="Shape"></path>
        </g>
    </g>
</svg>