<?xml version="1.0" encoding="UTF-8"?>
<svg width="471px" height="523px" viewBox="0 0 471 523" version="1.1" xmlns="http://www.w3.org/2000/svg" xmlns:xlink="http://www.w3.org/1999/xlink">
    <!-- Generator: Sketch 53.1 (72631) - https://sketchapp.com -->
    <title>icono 2</title>
    <desc>Created with Sketch.</desc>
    <g id="Page-1" stroke="none" stroke-width="1" fill="none" fill-rule="evenodd">
        <g id="mapas-y-banderas" fill="#FFFFFF" fill-rule="nonzero">
            <path d="M177.278,278.426 C177.278,229.785 137.706,190.213 89.064,190.213 C40.423,190.213 0.852,229.785 0.852,278.426 C0.852,292.68 4.253,306.153 10.283,318.08 L89.064,480.543 L167.859,318.055 C173.88,306.133 177.278,292.669 177.278,278.426 Z M89.064,327.243 C62.147,327.243 40.247,305.343 40.247,278.426 C40.247,251.509 62.147,229.609 89.064,229.609 C115.982,229.609 137.881,251.509 137.881,278.426 C137.881,305.343 115.982,327.243 89.064,327.243 Z" id="Shape"></path>
            <path d="M339.021,0 C314.391,0 294.352,20.038 294.352,44.668 C294.352,51.886 296.075,58.708 299.128,64.749 L339.021,147.016 L378.92,64.736 C381.969,58.699 383.69,51.881 383.69,44.669 C383.69,20.038 363.65,0 339.021,0 Z M339.021,69.388 C325.39,69.388 314.301,58.299 314.301,44.668 C314.301,31.038 325.39,19.948 339.021,19.948 C352.65,19.948 363.74,31.038 363.74,44.668 C363.74,58.299 352.65,69.388 339.021,69.388 Z" id="Shape"></path>
            <path d="M307.793,271.491 C305.981,262.968 303.627,254.616 300.662,246.416 C296.688,235.429 291.922,224.692 288.271,213.58 C281.448,192.809 293.219,175.475 295.431,172.324 C299.307,166.807 303.839,161.744 308.621,157.002 C317.828,147.874 327.982,139.714 338.605,132.199 C337.289,130.16 336.014,128.099 334.8,126 C319.521,131.99 240.946,159.452 242.862,220.121 C243.246,232.283 247.945,243.858 250.841,255.647 C252.236,261.328 253.446,267.059 254.186,272.865 C254.505,275.479 254.701,278.108 254.915,280.735 C254.921,280.715 254.919,280.701 254.907,280.69 C254.914,280.766 255.109,289.016 254.743,292.59 C253.596,303.779 251.944,315.084 247.227,325.348 C242.84,334.891 236.221,343.19 228.034,349.75 C209.318,364.744 184.52,370.738 161.121,373.148 C160.007,373.265 158.893,373.365 157.779,373.462 L116,459.614 C136.614,458.333 157.175,455.512 177.235,450.575 C200.842,444.764 223.848,435.987 244.462,422.977 C265.058,409.981 282.77,392.399 294.561,370.993 C306.896,348.602 311.838,322.955 310.786,297.541 C310.429,288.86 309.605,280.011 307.793,271.491 Z" id="Path"></path>
        </g>
        <g id="Group-27" transform="translate(192.000000, 244.000000)">
            <ellipse id="Oval" fill="#000000" cx="140" cy="139.5" rx="135" ry="134.5"></ellipse>
            <g id="Group-23" fill="#FFFFFF" fill-rule="nonzero">
                <g id="interfaz">
                    <path d="M139.5,0 C62.5788281,0 0,62.5788281 0,139.5 C0,216.421172 62.5788281,279 139.5,279 C216.421172,279 279,216.421172 279,139.5 C279,62.5788281 216.421172,0 139.5,0 Z M139.5,256.378658 C75.0548145,256.378658 22.6213418,203.949545 22.6213418,139.5 C22.6213418,75.0548145 75.0542695,22.6213418 139.5,22.6213418 C203.949,22.6213418 256.378658,75.0542695 256.378658,139.5 C256.378658,203.949 203.949,256.378658 139.5,256.378658 Z" id="Shape"></path>
                </g>
                <path d="M198.5363,81.4637932 C193.918033,76.8454023 186.42991,76.8454023 181.811643,81.4637932 L140,123.276557 L98.1883574,81.4637932 C93.5700903,76.8454023 86.0819674,76.8454023 81.4637003,81.4637932 C76.8454332,86.0821842 76.8454332,93.5705079 81.4637003,98.1888989 L123.275343,140.001663 L81.479222,181.798905 C76.860955,186.417296 76.860955,193.90562 81.479222,198.524011 C86.0974891,203.142402 93.585612,203.142402 98.2038791,198.524011 L140,156.726769 L181.808317,198.536207 C186.426584,203.154598 193.914707,203.154598 198.532974,198.536207 C203.151241,193.917816 203.151241,186.429492 198.532974,181.811101 L156.724657,140.001663 L198.5363,98.1888989 C203.154567,93.5705079 203.154567,86.0827385 198.5363,81.4637932 Z" id="Path"></path>
            </g>
        </g>
    </g>
</svg>